<?xml version="1.0" encoding="UTF-8"?>
<svg id="Calque_1" data-name="Calque 1" xmlns="http://www.w3.org/2000/svg" viewBox="0 0 411.44 439.6">
  <defs>
    <style>
      .cls-1 {
        fill: #fefefe;
      }

      .cls-2 {
        fill: #fefefd;
      }

      .cls-3 {
        fill: #90dae3;
      }

      .cls-4 {
        fill: #061c3b;
      }

      .cls-5 {
        fill: #3dcfc2;
      }

      .cls-6 {
        fill: #3bcec1;
      }
    </style>
  </defs>
  <path class="cls-4" d="M226.53,407.56h-39.66c-3.24-.91-6.61-.78-9.91-1-16.47-1.08-31.7-6.55-46.66-12.94-16.26-6.94-31.13-16.2-44.77-27.45-18.94-15.61-34.62-33.95-46.73-55.35-9.97-17.62-16.89-36.35-20.92-56.15-1.64-8.09-1.37-16.36-1.99-24.55-.07-.97,.32-2-.37-2.89v-3.74c.6-4.49,.6-8.98,0-13.47v-4.49c.86-6.05,.84-12.15,1.27-18.23,.76-10.92,3.73-21.33,7.16-31.61,6.73-20.14,16.54-38.7,29.45-55.58,16.73-21.86,37.12-39.48,61.21-52.86,19.16-10.65,39.54-17.87,61.13-21.21,14.27-2.2,28.77-1.82,43.2-1.46,10.81,.27,21.5,1.28,32.1,3.79,28.13,6.68,53.47,19.02,76.02,36.98,26.35,20.99,46.13,47.08,59,78.24,7.68,18.58,12.42,37.77,12.68,58.11,.2,15.09,.26,30.15-.99,45.17-.84,10.09-3.58,19.87-6.76,29.45-6.36,19.18-15.5,36.94-27.42,53.3-16,21.96-35.62,39.9-59.04,53.65-17.21,10.1-35.51,17.55-55.01,21.88-6.86,1.52-13.92,1.35-20.88,2.01-.72,.07-1.5-.19-2.14,.37Z"/>
  <path class="cls-1" d="M15.54,227.24c1.83,4.8,1.38,9.94,2.09,14.9,6.13,43.2,24.77,80.13,55.76,110.71,29.35,28.96,64.63,46.47,105.35,53.02,2.74,.44,5.64,.12,8.15,1.7-56.12,0-112.23-.02-168.35,.07-2.56,0-3.07-.5-3.06-3.07,.09-59.11,.07-118.22,.07-177.33Z"/>
  <path class="cls-3" d="M106.07,415.28c1.22,4.49,1.24,8.98,0,13.47v-13.47Z"/>
  <path class="cls-6" d="M277.85,235.59c-5.94-6.03-12.05-5.96-16.18,.82-4.31,7.06-10.08,12.2-16.8,16.62-3.53,2.32-6.21,5.43-7.12,9.69-.35,1.66-1.48,2.16-2.79,2.63-18.41,6.57-36.81,6.64-55.23,.01-1.43-.52-2.56-1.08-2.97-2.88-.99-4.37-3.88-7.47-7.54-9.83-6.44-4.17-11.94-9.07-16.02-15.83-4.26-7.06-10.15-7.26-16.45-1.38-2.28-7.49-3.36-15.13-4.99-22.64-2-9.22-4.14-18.27-3.45-27.94,2.45-34.41,29.36-64.99,63.34-71.34,44.62-8.34,85.63,19.86,93.72,64.58,1.91,10.55,1.14,20.91-1.84,31.34-2.41,8.43-3.17,17.31-5.68,26.17Z"/>
  <path class="cls-6" d="M258.33,295.19c-4.11,0-8.22-.02-12.33,0-1.56,.01-2.65-.19-2.38-2.25,.9-7.03-.59-13.91-1.71-20.78-1.16-7.14,.78-12.67,7.16-16.57,6.45-3.94,12.1-8.74,15.59-15.7,.54-1.07,1.5-2.01,2.45-2.78,2.84-2.29,5.42-1.51,6.68,1.91,1.2,3.24,.43,6.4-.5,9.52-.97,3.24-2.58,6.19-4.33,9.07-.87,1.44-1.18,2.92,.55,3.84,1.52,.81,2.54-.2,3.35-1.46,4.32-6.65,6.97-14,9.06-21.58,2.56-9.25,4.28-18.67,5.92-28.11,.39-2.23,.98-4.37,2.04-6.36,.64-1.21,1.32-2.65,2.94-2.43,1.45,.19,2.25,1.44,2.81,2.75,1.04,2.45,1.39,5.05,1.53,7.65,.83,15.25,.47,30.36-5.38,44.83-2.6,6.43-6.04,12.34-11.09,17.1-5.38,5.06-7.89,11.13-7.28,18.39,.23,2.71-.84,3.12-3.13,3.04-3.98-.14-7.97-.04-11.96-.04,0-.02,0-.03,0-.05Z"/>
  <path class="cls-6" d="M156.05,295.23c-4.11,0-8.23-.08-12.34,.04-1.93,.05-2.69-.53-2.52-2.54,.67-7.89-2.38-14.1-8.01-19.63-7.38-7.26-11.61-16.49-13.68-26.53-2.63-12.75-3.43-25.68-1.54-38.64,.39-2.67,.71-6.3,4.04-6.27,2.93,.02,3.59,3.6,4.09,6.04,2.19,10.73,3.87,21.56,6.9,32.11,1.97,6.85,4.47,13.46,8.27,19.53,.95,1.52,1.95,3.3,4.05,1.94,1.9-1.23,.8-2.8-.05-4.23-2.76-4.64-5.16-9.43-4.98-15.03,.07-2.39,.26-4.98,2.98-5.9,2.91-.99,4.98,.93,6.12,3.13,4.01,7.73,10.47,12.84,17.57,17.4,4.38,2.82,6.33,6.99,5.85,12.13-.48,5.2-1.2,10.39-1.9,15.57-.35,2.62-.55,5.23,.02,7.81,.51,2.28-.08,3.17-2.55,3.07-4.11-.17-8.23-.05-12.34-.05v.04Z"/>
  <path class="cls-6" d="M257.95,299.87c7.1,0,14.2,.07,21.3-.04,2.11-.03,2.81,.6,2.75,2.73-.14,5.35-.14,10.71-.03,16.07,.04,2.01-.43,2.86-2.66,2.83-14.07-.14-28.15-.2-42.22-.15-2.4,0-2.94-.94-2.88-3.1,.13-5.1,.18-10.22,.05-15.32-.06-2.4,.63-3.22,3.15-3.15,6.85,.18,13.7,.06,20.55,.06,0,.03,0,.05,0,.08Z"/>
  <path class="cls-6" d="M156.67,321.19c-6.97,0-13.94-.05-20.91,.03-1.92,.02-2.98-.27-2.92-2.59,.14-5.47,.1-10.95-.04-16.43-.05-2.08,.81-2.45,2.64-2.44,14.06,.02,28.13,0,42.19-.12,2.08-.02,2.84,.58,2.79,2.72-.11,5.1-.12,10.21,.08,15.31,.1,2.57-.64,3.47-3.3,3.4-6.84-.17-13.69-.06-20.53-.06,0,.06,0,.11,0,.17Z"/>
  <path class="cls-5" d="M207.19,225.08c-2.87,0-5.74-.1-8.6,.03-2.78,.13-3.76-1.11-3.7-3.79,.11-4.86-.11-9.72,.08-14.58,.11-2.7-.88-3.41-3.43-3.32-4.73,.17-9.47-.04-14.2,.08-2.77,.07-4.14-.77-4.06-3.82,.16-5.73,.15-11.47,0-17.19-.07-3,1.25-3.95,4.05-3.88,4.61,.12,9.23-.19,13.83,.1,3.28,.21,3.97-1.04,3.81-4.02-.24-4.47,.05-8.97-.1-13.45-.1-3.01,.99-4.33,4.1-4.25,5.6,.13,11.21,.09,16.82,.02,2.86-.04,4.05,1.16,3.98,4.04-.12,4.98,.07,9.97-.08,14.95-.07,2.19,.71,2.75,2.78,2.69,4.86-.13,9.72,.06,14.58-.08,2.98-.09,4.39,.94,4.33,4.07-.11,5.61-.1,11.22,0,16.82,.05,2.84-1.03,4.08-3.96,4.01-4.98-.13-9.97,.05-14.95-.07-2.12-.05-2.82,.64-2.76,2.77,.13,4.98-.05,9.97,.07,14.95,.07,2.89-1.1,4.09-3.99,3.95-2.86-.14-5.73-.03-8.6-.03Z"/>
  <path class="cls-2" d="M215.16,172.33q0,10.9,11.09,10.9c2.62,0,5.24,.09,7.85-.03,1.92-.09,2.7,.58,2.64,2.55-.1,3.49-.13,6.98,.01,10.47,.09,2.18-.76,2.77-2.82,2.72-4.73-.12-9.48,.11-14.2-.09-3.33-.14-4.79,.95-4.62,4.47,.23,4.72-.04,9.47,.1,14.2,.06,2.18-.42,3.24-2.86,3.01-4.17-.38-9.64,1.72-12.18-.87-2.03-2.07-.62-7.55-.65-11.51-.06-10.3,1-9.23-9.16-9.26-.25,0-.5,.01-.75,0-3.81-.25-7.66,.53-11.44-.45-.09-4.46-.15-8.92-.29-13.38-.06-1.91,1.18-1.84,2.47-1.83,4.74,.01,9.47,.01,14.21,0,4.69-.01,4.93-.24,4.94-4.79,.02-4.74,.07-9.47-.03-14.21-.04-1.91,.55-2.68,2.54-2.61,3.49,.12,6.98,.13,10.47,0,2.19-.08,2.82,.82,2.71,2.87-.14,2.61-.03,5.23-.03,7.85Z"/>
</svg>