<?xml version="1.0" encoding="UTF-8"?>
<svg id="Calque_1" data-name="Calque 1" xmlns="http://www.w3.org/2000/svg" viewBox="0 0 434.78 432.53">
  <defs>
    <style>
      .cls-1 {
        fill: #fefefe;
      }

      .cls-2 {
        fill: #8bdba7;
      }

      .cls-3 {
        fill: #15b84f;
      }

      .cls-4 {
        fill: #06b443;
      }

      .cls-5 {
        fill: #06b343;
      }

      .cls-6 {
        fill: #061c3b;
      }

      .cls-7 {
        fill: #08b445;
      }

      .cls-8 {
        fill: #3bcec1;
      }

      .cls-9 {
        fill: #85daa3;
      }

      .cls-10 {
        fill: #60ce87;
      }

      .cls-11 {
        fill: #5dce85;
      }

      .cls-12 {
        fill: #81d9a0;
      }
    </style>
  </defs>
  <path class="cls-6" d="M25.74,199.09v-2.99c.83-5.27,.76-10.61,1.24-15.91,1.09-11.89,4.63-23.18,8.62-34.32,8.45-23.62,21.3-44.66,38.09-63.28,13.77-15.27,29.53-28.13,47.38-38.39,20.29-11.67,41.92-19.91,65.13-22.94,14.78-1.93,29.79-1.37,44.74-1.16,17.68,.25,34.55,3.77,51.11,9.59,20.17,7.1,38.53,17.41,55.23,30.74,22.22,17.74,39.94,39.2,52.73,64.58,8.85,17.56,15.47,36.03,17.83,55.6,1.77,14.69,1.6,29.54,1.12,44.37-.39,12.12-1.45,24.08-4.62,35.8-7.32,27.08-19.59,51.71-37.48,73.31-16.27,19.65-35.47,35.88-58.11,47.96-17.29,9.23-35.44,15.81-54.67,19.43-6.24,1.17-12.62,1.02-18.94,1.51-.97,.07-2-.32-2.89,.37h-2.24c-.47-.5-1.08-.34-1.65-.37-.71,.08-1.48-.22-2.09,.37h-3.74c-1.25-.59-2.49-.59-3.74,0h-2.99c-1.5-.59-2.99-.59-4.49,0h-2.99c-.61-.59-1.39-.3-2.09-.37-.57,.04-1.18-.12-1.65,.37h-3.74c-5.01-.9-10.1-.75-15.14-1.24-12.24-1.2-23.87-4.8-35.3-9.05-16.53-6.14-32.07-14.23-46.29-24.7-17.05-12.56-31.85-27.33-44.2-44.59-14.68-20.51-24.74-43.05-30.75-67.5-2.09-8.52-2.36-17.2-3.01-25.86-.05-.72,.2-1.5-.37-2.14v-2.99c.64-.66,.28-1.49,.37-2.24-.1-.75,.26-1.58-.37-2.24v-17.96c.59-.61,.3-1.39,.37-2.09-.04-.57,.12-1.18-.37-1.65Z"/>
  <path class="cls-1" d="M25.74,228.27c1.84,3.61,1.38,7.65,2.03,11.48,11.61,67.93,48.61,116.71,110.62,146.51,18.9,9.08,39.05,13.93,59.85,16.24,.88,.1,2.07-.43,2.59,.86-57.36,0-114.73-.02-172.09,.07-2.56,0-3.07-.5-3.06-3.07,.09-57.37,.07-114.73,.07-172.1Z"/>
  <path class="cls-3" d="M211.29,403.36c1.5-1.05,2.99-1.03,4.49,0h-4.49Z"/>
  <path class="cls-3" d="M218.78,403.36c1.25-.97,2.49-.99,3.74,0h-3.74Z"/>
  <path class="cls-11" d="M26.38,200.55c.11,.85,.16,1.69-.65,2.29v-2.24c.18-.52,.4-.53,.65-.04Z"/>
  <path class="cls-11" d="M25.74,220.79c.8,.6,.76,1.44,.63,2.3-.25,.4-.46,.38-.63-.06v-2.24Z"/>
  <path class="cls-2" d="M25.74,223.04c.21,.03,.42,.05,.63,.06-.01,.79,.51,1.73-.63,2.19v-2.24Z"/>
  <path class="cls-10" d="M206.02,402.72c.85-.1,1.69-.17,2.28,.65h-2.24c-.52-.18-.53-.4-.04-.65Z"/>
  <path class="cls-10" d="M226.26,403.36c.59-.82,1.43-.75,2.28-.65,.49,.25,.48,.46-.04,.65h-2.24Z"/>
  <path class="cls-12" d="M26.38,200.55c-.22,0-.43,.02-.65,.04v-1.5c.77,.24,.7,.85,.65,1.46Z"/>
  <path class="cls-9" d="M206.02,402.72c.03,.21,.04,.43,.04,.65h-1.5c.23-.78,.85-.7,1.46-.65Z"/>
  <path class="cls-9" d="M228.5,403.36c0-.22,.01-.43,.04-.65,.61-.06,1.22-.14,1.46,.65h-1.5Z"/>
  <path class="cls-8" d="M272.55,266.84c-8.17,4.5-13.64,10.75-16.9,18.92-.44,1.1-1.15,1.88-1.99,2.64-12.48,11.21-26.08,20.76-41.04,28.42-3.51,1.8-6.28,1.8-9.72,.01-36.79-19.15-64.4-47.24-82.79-84.43-1.76-3.56-2.48-7.11-2.46-11.08,.11-29.42,.06-58.85,.06-88.27,0-5.12,.4-5.51,5.51-5.57,17.82-.21,35.23-2.79,51.94-9.21,11.43-4.39,21.69-10.58,29.85-19.9,1.69-1.93,3.5-2.92,5.6-.53,12.69,14.4,29.47,21.24,47.56,25.53,11.3,2.68,22.81,4.01,34.44,4.07,5.28,.03,5.72,.52,5.74,5.82,.03,5.7,.02,5.73-5.47,4.95-7.41-1.05-14.49,.09-20.91,3.84-3.06,1.79-6.02,2.07-9.23,1.49-17.93-3.22-34.97-8.87-50.14-19.23-3.12-2.13-5.38-2.26-8.61-.08-18.47,12.5-39.29,18.38-61.19,20.95-5.35,.63-5.7,.79-5.7,6.04,0,12.47,0,24.93,0,37.4,0,9.8,.09,19.6-.05,29.4-.05,3.22,.64,6.03,2.11,8.89,15.1,29.29,37.75,51.37,65.25,68.91,2.86,1.82,5.11,1.59,7.84-.21,16.56-11.01,32.38-22.87,45.08-38.39,1.34-1.64,2.07-1.97,3.47-.03,2.97,4.11,7.11,6.92,11.75,9.62Z"/>
  <path class="cls-1" d="M259.73,233.25c.14-7.05,3.81-14.55,10.89-20.26,1.56-1.26,2.3-2.43,2.07-4.33-.06-.49-.04-1,0-1.49,.47-5.91-.56-10.51-5.39-15.35-11.81-11.84-9.68-31.31,3.39-41.53,12.96-10.14,31.64-7.16,41.07,6.56,9.44,13.73,5.31,31.93-9.23,40.89-1.23,.76-3.3,.92-3.52,2.46-.37,2.56-.28,5.23-.06,7.82,.11,1.4,1.82,1.51,2.84,2.1,16.98,10.03,20.23,32.18,6.64,45.6-8.27,8.17-20.76,10.61-31.47,6.16-10.59-4.41-17.31-14.73-17.23-28.63Z"/>
  <path class="cls-8" d="M205.17,288.39c-8.61-4.82-15.49-10.77-22.39-16.62-15.46-13.12-27.74-28.81-37.48-46.61-3.28-5.99-1.51-12.16-1.88-18.25-.13-2.12,2.02-1.37,3.2-1.37,11.96-.06,23.93-.04,35.89-.04,6.6,0,13.21,.01,19.81,0,1.59,0,2.9-.04,2.89,2.25-.05,26.65-.03,53.29-.03,80.65Z"/>
  <path class="cls-8" d="M205.18,131.85c0,8.65,0,16.85,0,25.04,0,12.84-.06,25.68,.05,38.52,.02,2.55-.62,3.42-3.29,3.4-18.45-.11-36.9-.11-55.35,0-2.62,.01-3.36-.74-3.33-3.35,.12-13.71,.07-27.43,.04-41.14,0-1.73-.04-2.95,2.38-3.2,20.44-2.13,39.62-8.3,57.51-18.44,.43-.24,.91-.38,1.99-.83Z"/>
  <path class="cls-8" d="M269.49,205.69c-9.32,6.98-14.55,15.37-15.93,26.07-.65,5.05,.06,9.96,1.41,14.77,.47,1.66,.24,2.75-.8,4.05-11.81,14.71-26.07,26.66-41.55,37.34-1.19-.95-.65-2.15-.65-3.16-.04-25.18,.01-50.37-.09-75.55-.01-2.8,.54-3.81,3.61-3.78,16.7,.16,33.41,.08,50.11,.08,.98,0,1.95,.09,3.89,.18Z"/>
  <path class="cls-8" d="M212.27,131.79c15.23,9.82,31.78,14.85,49.14,18.32-11.68,16.98-10.79,32.94,2.71,48.1-.64,.88-1.59,.53-2.4,.53-15.57,.02-31.13,0-46.7,.04-2,0-3.16-.14-3.15-2.73,.11-20.92,.06-41.85,.08-62.77,0-.34,.14-.68,.32-1.5Z"/>
  <path class="cls-1" d="M288.1,270.05c15.91,.02,28.72,12.62,28.73,28.27,0,15.81-12.94,28.79-28.75,28.81-15.83,.02-28.48-12.93-28.35-29.02,.13-15.8,12.54-28.09,28.37-28.07Z"/>
  <path class="cls-4" d="M283.27,248.35c-1.77-.23-3.45-.67-4.78-1.91-2.55-2.37-5.08-4.76-7.58-7.18-1.65-1.6-2.08-3.5-.41-5.26,1.69-1.79,3.59-1.41,5.22,.25,1.57,1.59,3.19,3.16,4.56,4.92,1.99,2.54,3.63,2.7,5.95,.22,4.58-4.9,9.45-9.53,14.19-14.29,1.67-1.68,3.46-3.31,5.65-.96,2.02,2.17,.78,4.06-.97,5.79-5.12,5.07-10.21,10.18-15.3,15.28-1.82,1.82-3.92,3.01-6.53,3.15Z"/>
  <path class="cls-5" d="M284.11,185.12c-2.88-.03-4.77-.61-6.26-2.06-2.42-2.33-4.77-4.72-7.14-7.11-1.43-1.45-1.73-3.07-.23-4.59,1.42-1.45,3.17-1.48,4.7-.21,1.53,1.27,2.87,2.75,4.28,4.16q3.82,3.81,7.82-.09c4.46-4.34,8.94-8.65,13.38-13,1.64-1.61,3.34-2.9,5.4-.78,2.06,2.13,.63,3.82-.94,5.42-4.96,5.06-9.92,10.13-14.86,15.21-1.91,1.96-4.21,3.03-6.14,3.06Z"/>
  <path class="cls-7" d="M291.89,207.19c-3.53-.7-6.89-.35-10.15,.45-1.91,.47-2.52,.14-2.31-1.76,.04-.37,.05-.75,0-1.12-.5-3.41,.24-5.27,4.23-3.71,1.11,.43,2.46,.28,3.7,.32q4.96,.13,4.54,5.83Z"/>
  <path class="cls-4" d="M283.92,310.89c-2.6-.08-4.32-.7-5.74-2.05-2.34-2.24-4.67-4.5-7.02-6.72-1.51-1.42-2.49-3.09-.86-4.84,1.75-1.89,3.77-1.57,5.56,.2,1.42,1.4,2.99,2.68,4.21,4.25,2.34,3.02,4.19,2.46,6.57-.11,4.33-4.66,8.96-9.02,13.44-13.54,1.82-1.84,3.88-3.32,6.08-1.08,2.11,2.15,.45,4.07-1.24,5.75-4.95,4.92-9.88,9.87-14.81,14.81-1.9,1.9-4.01,3.37-6.2,3.33Z"/>
</svg>