<?xml version="1.0" encoding="UTF-8"?>
<svg id="Calque_1" data-name="Calque 1" xmlns="http://www.w3.org/2000/svg" viewBox="0 0 427.44 430.99">
  <defs>
    <style>
      .cls-1 {
        fill: #fefefe;
      }

      .cls-2 {
        fill: #fefefd;
      }

      .cls-3 {
        fill: #91cda3;
      }

      .cls-4 {
        fill: #b5dec1;
      }

      .cls-5 {
        fill: #061c3b;
      }

      .cls-6 {
        fill: #3bcec1;
      }

      .cls-7 {
        fill: #9ad1a9;
      }

      .cls-8 {
        fill: #6dbd84;
      }
    </style>
  </defs>
  <path class="cls-5" d="M229.78,399.97h-2.24c-.5-.46-1-.46-1.5,0h-27.68c-.5-.46-1-.46-1.5,0h-2.99c-3.51-.82-7.11-.77-10.67-.98-17.12-1.02-33.04-6.46-48.57-13.19-21.01-9.1-39.59-21.77-56.14-37.64-28.92-27.72-47.44-61.12-55.8-100.21-1.6-7.5-1.36-15.2-2.02-22.8-.07-.84,.27-1.75-.37-2.51v-2.99c.46-.5,.46-1,0-1.5v-4.49c.61-3.74,.61-7.48,0-11.22v-3.74c.46-.5,.46-1,0-1.5v-2.99c1.13-6.93,.6-14,1.74-20.92,2.35-14.34,6.72-28.1,12.47-41.42,10.82-25.07,26.32-46.94,46.41-65.35,28.27-25.9,61.31-42.37,99.28-48.6,4.46-.73,8.99-.71,13.49-.94,16.74-.85,33.53-1.04,50.14,1.09,22.39,2.88,43.12,11,62.82,21.9,15.37,8.51,29.23,19.05,41.59,31.45,13.06,13.11,24.26,27.68,33.21,43.99,9.68,17.64,16.46,36.27,20.34,55.98,1.46,7.41,1.55,14.96,1.7,22.48,.4,21.23,1.26,42.49-4.23,63.34-7.45,28.31-20.51,53.76-39.43,76.02-27.92,32.86-63.04,54.19-105.06,64.05-7.62,1.79-15.45,1.71-23.2,2.32-.61,.05-1.25-.1-1.76,.38Z"/>
  <path class="cls-1" d="M229.78,399.97c5.27-1.84,10.87-1.89,16.3-2.84,77.88-13.64,141.52-76.57,154.22-154.45,11.87-72.78-10.55-134.08-66.75-181.8C295.58,28.63,250.65,14.61,200.84,17.51c-51.11,2.98-94.27,23.61-129.17,60.89-29.68,31.7-46.21,69.6-50.51,112.82-.1,1,.47,2.31-.88,2.98,0-58.34,.02-116.69-.06-175.03,0-2.43,.31-3.13,3-3.13,126.03,.09,252.06,.08,378.09,.07,1.72,0,2.9-.33,2.9,2.44-.11,127.03-.1,254.07-.1,381.1,0,.11-.04,.21-.06,.32H229.78Z"/>
  <path class="cls-1" d="M20.28,222.63c1.79,4.02,1.42,8.42,2.03,12.63,11.39,78.65,68.98,141.74,146.14,159.93,7.63,1.8,15.38,3,23.16,3.95,.79,.1,1.81-.29,2.25,.83-56.8,0-113.61-.02-170.41,.07-2.7,0-3.25-.56-3.25-3.25,.1-58.05,.07-116.1,.07-174.15Z"/>
  <path class="cls-8" d="M106.07,415.28c1.2,3.74,1.13,7.48,0,11.22v-11.22Z"/>
  <path class="cls-4" d="M106.07,410.04c.97,.5,.87,1,0,1.5v-1.5Z"/>
  <path class="cls-3" d="M196.86,399.97c.5-.87,1-.72,1.5,0h-1.5Z"/>
  <path class="cls-7" d="M226.04,399.97c.5-.74,1-.92,1.5,0h-1.5Z"/>
  <path class="cls-6" d="M311.44,148.84c-.22,33.27-26.58,59.12-60.06,58.89-32.16-.22-58.28-27.17-58.06-59.89,.22-31.95,27.27-58.46,59.45-58.25,32.54,.21,58.89,26.81,58.67,59.25Z"/>
  <path class="cls-6" d="M209.44,228.37c11.72,0,23.44-.05,35.16,.03,5.56,.04,9.26,3.06,9.88,7.74,.78,5.85-3.15,10.46-9.3,10.53-10.72,.12-21.45,.04-32.17,.05-1.12,0-2.27-.1-3.36,.09-2.76,.48-4.59,2.01-4.57,5,.02,2.99,1.83,4.58,4.64,4.9,2.09,.23,4.23,.1,6.35,.1,9.48,0,18.95,0,28.43,0,6.47,0,11.94-2.21,16.03-7.37,.72-.91,1.6-1.52,2.58-2.08,13.38-7.7,26.75-15.43,40.13-23.13,5.59-3.21,10.91-2.32,13.81,2.23,2.8,4.4,1.22,9.99-4.08,13.46-25.32,16.59-50.68,33.11-76,49.7-1.47,.96-2.94,1.13-4.58,1.13-14.34-.02-28.68,.05-43.02-.06-3.48-.03-6.7,.3-9.47,2.57-1.55,1.27-2.54,1.26-3.67-.73-8.82-15.47-17.71-30.9-26.7-46.27-1.15-1.96-.53-2.75,1.03-3.81,6.29-4.26,12.56-8.56,18.76-12.95,1.57-1.11,3.22-1.14,4.97-1.13,11.72,0,23.44,0,35.16,0Z"/>
  <path class="cls-6" d="M175.49,311.18c-.14,1.11-1.1,1.34-1.81,1.75-7.74,4.5-15.54,8.91-23.23,13.49-1.74,1.04-2.45,.72-3.4-.94-13.38-23.3-26.81-46.57-40.29-69.81-1.01-1.74-.66-2.43,.96-3.35,7.8-4.4,15.56-8.86,23.27-13.43,1.65-.98,2.41-.85,3.39,.85,13.38,23.3,26.82,46.56,40.25,69.83,.31,.54,.6,1.09,.87,1.59Z"/>
  <path class="cls-2" d="M262.47,137.72c0,5.36,.07,10.72-.02,16.07-.08,4.41-1.78,6.04-6.22,6.07-8.47,.04-16.94,.04-25.42,0-3.78-.02-6.1-2.09-5.97-5.13,.13-2.9,2.35-4.7,6-4.72,6.1-.04,12.21-.15,18.31,.05,2.71,.09,3.31-.87,3.27-3.39-.14-8.35-.05-16.7-.06-25.04,0-2.88,.89-5.22,3.96-5.96,3.38-.83,6.03,1.54,6.12,5.62,.12,5.48,.03,10.96,.03,16.45Z"/>
</svg>